<svg xmlns="http://www.w3.org/2000/svg" viewBox="0 0 512 512" role="img" aria-label="Sync30">
  <defs>
    <linearGradient id="bg" x1="0" y1="0" x2="1" y2="1">
      <stop offset="0" stop-color="#111a2b"/>
      <stop offset="0.5" stop-color="#050914"/>
      <stop offset="1" stop-color="#01040b"/>
    </linearGradient>
    <linearGradient id="green" x1="0" y1="0" x2="1" y2="1">
      <stop offset="0" stop-color="#d9ff79"/>
      <stop offset="0.45" stop-color="#9cff4f"/>
      <stop offset="1" stop-color="#55d528"/>
    </linearGradient>
    <linearGradient id="cyan" x1="0" y1="0" x2="1" y2="1">
      <stop offset="0" stop-color="#60f3ff"/>
      <stop offset="1" stop-color="#168dff"/>
    </linearGradient>
    <filter id="glow" x="-30%" y="-30%" width="160%" height="160%">
      <feGaussianBlur stdDeviation="8" result="blur"/>
      <feColorMatrix in="blur" type="matrix" values="0 0 0 0 0.45 0 0 0 0 1 0 0 0 0 0.15 0 0 0 .9 0" result="glow"/>
      <feMerge>
        <feMergeNode in="glow"/>
        <feMergeNode in="SourceGraphic"/>
      </feMerge>
    </filter>
    <filter id="shadow" x="-20%" y="-20%" width="140%" height="140%">
      <feDropShadow dx="0" dy="18" stdDeviation="18" flood-color="#000000" flood-opacity="0.45"/>
    </filter>
  </defs>

  <rect width="512" height="512" rx="116" fill="url(#bg)"/>
  <rect x="18" y="18" width="476" height="476" rx="100" fill="none" stroke="rgba(255,255,255,.22)" stroke-width="4"/>
  <rect x="25" y="25" width="462" height="462" rx="94" fill="none" stroke="#9cff4f" stroke-opacity=".55" stroke-width="5"/>

  <circle cx="256" cy="256" r="154" fill="none" stroke="#102033" stroke-width="34" opacity=".7"/>
  <path d="M118 238a150 150 0 0 1 248-94" fill="none" stroke="url(#green)" stroke-width="34" stroke-linecap="round" filter="url(#glow)"/>
  <path d="M392 276a150 150 0 0 1-247 95" fill="none" stroke="url(#green)" stroke-width="34" stroke-linecap="round" filter="url(#glow)"/>
  <path d="M382 128a166 166 0 0 1 41 55" fill="none" stroke="url(#cyan)" stroke-width="22" stroke-linecap="round" opacity=".95"/>
  <path d="M91 337a166 166 0 0 1-23-65" fill="none" stroke="url(#cyan)" stroke-width="18" stroke-linecap="round" opacity=".75"/>

  <g filter="url(#shadow)">
    <text x="256" y="305" text-anchor="middle" font-family="Arial Black, Arial, sans-serif" font-size="136" font-weight="900" letter-spacing="-12">
      <tspan fill="#ffffff">S</tspan><tspan fill="url(#green)">30</tspan>
    </text>
  </g>
</svg>
